<svg width="24" height="24" viewBox="0 0 24 24" fill="none" xmlns="http://www.w3.org/2000/svg">
<g clip-path="url(#clip0)">
<path d="M14.8725 17.8335C14.834 17.8641 14.8019 17.9021 14.7783 17.9453C14.7547 17.9884 14.7401 18.0359 14.7352 18.0849C14.7303 18.1339 14.7353 18.1833 14.7498 18.2303C14.7644 18.2773 14.7883 18.3209 14.82 18.3585C14.9071 18.4535 14.9599 18.575 14.97 18.7035C14.9639 18.8218 14.9249 18.9361 14.8575 19.0335C14.7451 19.2248 14.6713 19.4363 14.64 19.656C14.5953 19.9711 14.6368 20.2925 14.76 20.586C14.7883 20.6565 14.8369 20.7169 14.8997 20.7597C14.9625 20.8024 15.0366 20.8255 15.1125 20.826C15.1569 20.8365 15.2031 20.8365 15.2475 20.826C15.2933 20.8078 15.3351 20.7808 15.3705 20.7464C15.4059 20.7121 15.4341 20.6711 15.4536 20.6258C15.4731 20.5805 15.4835 20.5318 15.4842 20.4825C15.4848 20.4332 15.4758 20.3843 15.4575 20.3385C15.3842 20.1659 15.3558 19.9775 15.375 19.791C15.4027 19.6558 15.4534 19.5264 15.525 19.4085C15.6523 19.1981 15.7198 18.9569 15.72 18.711C15.7046 18.4174 15.591 18.1374 15.3975 17.916C15.3692 17.8752 15.3329 17.8405 15.2908 17.8142C15.2487 17.7878 15.2017 17.7702 15.1527 17.7625C15.1036 17.7548 15.0535 17.7571 15.0053 17.7693C14.9572 17.7815 14.912 17.8033 14.8725 17.8335ZM12.6225 17.8335C12.584 17.8641 12.5519 17.9021 12.5283 17.9453C12.5047 17.9884 12.4901 18.0359 12.4852 18.0849C12.4803 18.1339 12.4853 18.1833 12.4998 18.2303C12.5144 18.2773 12.5383 18.3209 12.57 18.3585C12.6571 18.4535 12.7099 18.575 12.72 18.7035C12.7139 18.8218 12.6749 18.9361 12.6075 19.0335C12.4951 19.2248 12.4213 19.4363 12.39 19.656C12.3453 19.9711 12.3868 20.2925 12.51 20.586C12.5383 20.6565 12.5869 20.7169 12.6497 20.7597C12.7125 20.8024 12.7866 20.8255 12.8625 20.826C12.9069 20.8365 12.9531 20.8365 12.9975 20.826C13.0433 20.8078 13.0851 20.7808 13.1205 20.7464C13.1559 20.7121 13.1841 20.6711 13.2036 20.6258C13.2231 20.5805 13.2335 20.5318 13.2342 20.4825C13.2348 20.4332 13.2258 20.3843 13.2075 20.3385C13.1342 20.1659 13.1058 19.9775 13.125 19.791C13.1527 19.6558 13.2034 19.5264 13.275 19.4085C13.4023 19.1981 13.4698 18.9569 13.47 18.711C13.4546 18.4174 13.341 18.1374 13.1475 17.916C13.1192 17.8752 13.0829 17.8405 13.0408 17.8142C12.9987 17.7878 12.9517 17.7702 12.9027 17.7625C12.8536 17.7548 12.8035 17.7571 12.7553 17.7693C12.7072 17.7815 12.662 17.8033 12.6225 17.8335ZM3.62251 17.8335C3.58396 17.8641 3.55193 17.9021 3.52834 17.9453C3.50475 17.9884 3.49007 18.0359 3.48517 18.0849C3.48028 18.1339 3.48526 18.1833 3.49984 18.2303C3.51441 18.2773 3.53828 18.3209 3.57002 18.3585C3.65712 18.4535 3.70992 18.575 3.72002 18.7035C3.71391 18.8218 3.67495 18.9361 3.60751 19.0335C3.49514 19.2248 3.42125 19.4363 3.39002 19.656C3.3453 19.9711 3.38677 20.2925 3.51002 20.586C3.53831 20.6565 3.58694 20.7169 3.64972 20.7597C3.71249 20.8024 3.78657 20.8255 3.86251 20.826C3.9069 20.8365 3.95313 20.8365 3.99751 20.826C4.04334 20.8078 4.08513 20.7808 4.1205 20.7464C4.15586 20.7121 4.1841 20.6711 4.20361 20.6258C4.22311 20.5805 4.2335 20.5318 4.23417 20.4825C4.23484 20.4332 4.22578 20.3843 4.20752 20.3385C4.13421 20.1659 4.10583 19.9775 4.12502 19.791C4.15265 19.6558 4.2034 19.5264 4.27501 19.4085C4.41827 19.1926 4.49638 18.9401 4.50002 18.681C4.4846 18.3874 4.37103 18.1074 4.17752 17.886C4.14695 17.8428 4.10741 17.8067 4.06159 17.7801C4.01578 17.7536 3.96477 17.7373 3.91207 17.7323C3.85937 17.7273 3.80621 17.7338 3.75623 17.7513C3.70626 17.7687 3.66064 17.7968 3.62251 17.8335ZM5.87251 17.8335C5.83396 17.8641 5.80193 17.9021 5.77834 17.9453C5.75475 17.9884 5.74007 18.0359 5.73517 18.0849C5.73028 18.1339 5.73526 18.1833 5.74984 18.2303C5.76441 18.2773 5.78828 18.3209 5.82001 18.3585C5.90712 18.4535 5.95992 18.575 5.97002 18.7035C5.96391 18.8218 5.92495 18.9361 5.85751 19.0335C5.74514 19.2248 5.67125 19.4363 5.64002 19.656C5.5953 19.9711 5.63677 20.2925 5.76002 20.586C5.78831 20.6565 5.83694 20.7169 5.89972 20.7597C5.96249 20.8024 6.03657 20.8255 6.11251 20.826C6.1569 20.8365 6.20313 20.8365 6.24751 20.826C6.29334 20.8078 6.33513 20.7808 6.3705 20.7464C6.40586 20.7121 6.4341 20.6711 6.45361 20.6258C6.47311 20.5805 6.4835 20.5318 6.48417 20.4825C6.48484 20.4332 6.47578 20.3843 6.45751 20.3385C6.38421 20.1659 6.35583 19.9775 6.37502 19.791C6.40265 19.6558 6.4534 19.5264 6.52501 19.4085C6.66827 19.1926 6.74638 18.9401 6.75002 18.681C6.7346 18.3874 6.62103 18.1074 6.42752 17.886C6.39695 17.8428 6.35741 17.8067 6.31159 17.7801C6.26578 17.7536 6.21477 17.7373 6.16207 17.7323C6.10937 17.7273 6.05621 17.7338 6.00623 17.7513C5.95626 17.7687 5.91064 17.7968 5.87251 17.8335ZM8.12251 17.8335C8.08396 17.8641 8.05193 17.9021 8.02834 17.9453C8.00475 17.9884 7.99007 18.0359 7.98517 18.0849C7.98028 18.1339 7.98526 18.1833 7.99984 18.2303C8.01441 18.2773 8.03828 18.3209 8.07001 18.3585C8.15712 18.4535 8.20992 18.575 8.22001 18.7035C8.21391 18.8218 8.17495 18.9361 8.10752 19.0335C7.99514 19.2248 7.92125 19.4363 7.89002 19.656C7.8453 19.9711 7.88677 20.2925 8.01002 20.586C8.03831 20.6565 8.08694 20.7169 8.14972 20.7597C8.21249 20.8024 8.28657 20.8255 8.36251 20.826C8.4069 20.8365 8.45313 20.8365 8.49751 20.826C8.54334 20.8078 8.58513 20.7808 8.6205 20.7464C8.65586 20.7121 8.6841 20.6711 8.70361 20.6258C8.72311 20.5805 8.7335 20.5318 8.73417 20.4825C8.73484 20.4332 8.72578 20.3843 8.70751 20.3385C8.63421 20.1659 8.60583 19.9775 8.62502 19.791C8.65265 19.6558 8.7034 19.5264 8.77501 19.4085C8.90233 19.1981 8.96976 18.9569 8.97001 18.711C8.95461 18.4174 8.84103 18.1374 8.64751 17.916C8.61919 17.8752 8.58289 17.8405 8.54081 17.8142C8.49872 17.7878 8.45173 17.7702 8.40265 17.7625C8.35359 17.7548 8.30346 17.7571 8.25531 17.7693C8.20716 17.7815 8.16199 17.8033 8.12251 17.8335ZM10.3725 17.8335C10.334 17.8641 10.3019 17.9021 10.2783 17.9453C10.2547 17.9884 10.2401 18.0359 10.2352 18.0849C10.2303 18.1339 10.2353 18.1833 10.2498 18.2303C10.2644 18.2773 10.2883 18.3209 10.32 18.3585C10.4071 18.4535 10.4599 18.575 10.47 18.7035C10.4639 18.8218 10.425 18.9361 10.3575 19.0335C10.2451 19.2248 10.1713 19.4363 10.14 19.656C10.0953 19.9711 10.1368 20.2925 10.26 20.586C10.2883 20.6565 10.3369 20.7169 10.3997 20.7597C10.4625 20.8024 10.5366 20.8255 10.6125 20.826C10.6569 20.8365 10.7031 20.8365 10.7475 20.826C10.7933 20.8078 10.8351 20.7808 10.8705 20.7464C10.9059 20.7121 10.9341 20.6711 10.9536 20.6258C10.9731 20.5805 10.9835 20.5318 10.9842 20.4825C10.9848 20.4332 10.9758 20.3843 10.9575 20.3385C10.8842 20.1659 10.8558 19.9775 10.875 19.791C10.9027 19.6558 10.9534 19.5264 11.025 19.4085C11.1523 19.1981 11.2198 18.9569 11.22 18.711C11.2046 18.4174 11.091 18.1374 10.8975 17.916C10.8692 17.8752 10.8329 17.8405 10.7908 17.8142C10.7487 17.7878 10.7017 17.7702 10.6527 17.7625C10.6036 17.7548 10.5535 17.7571 10.5053 17.7693C10.4572 17.7815 10.412 17.8033 10.3725 17.8335ZM21.375 11.0835C21.2756 11.0835 21.1802 11.123 21.1098 11.1933C21.0395 11.2637 21 11.359 21 11.4585C21 11.558 21.0395 11.6533 21.1098 11.7237C21.1802 11.794 21.2756 11.8335 21.375 11.8335C21.4745 11.8335 21.5699 11.794 21.6402 11.7237C21.7105 11.6533 21.75 11.558 21.75 11.4585C21.75 11.359 21.7105 11.2637 21.6402 11.1933C21.5699 11.123 21.4745 11.0835 21.375 11.0835ZM19.875 11.0835C19.7756 11.0835 19.6802 11.123 19.6098 11.1933C19.5395 11.2637 19.5 11.359 19.5 11.4585C19.5 11.558 19.5395 11.6533 19.6098 11.7237C19.6802 11.794 19.7756 11.8335 19.875 11.8335C19.9745 11.8335 20.0699 11.794 20.1402 11.7237C20.2105 11.6533 20.25 11.558 20.25 11.4585C20.25 11.359 20.2105 11.2637 20.1402 11.1933C20.0699 11.123 19.9745 11.0835 19.875 11.0835ZM22.125 5.8335H1.87502C1.62815 5.83349 1.38372 5.88224 1.15575 5.97694C0.927771 6.07163 0.720739 6.21041 0.546531 6.38532C0.372323 6.56022 0.234368 6.76781 0.140583 6.99616C0.0467971 7.22451 -0.000972442 7.46914 1.50014e-05 7.716V12.966C0.00199894 13.462 0.200419 13.937 0.551834 14.287C0.90325 14.637 1.37903 14.8335 1.87502 14.8335H2.01752L1.53751 15.7935C1.50797 15.8489 1.49251 15.9107 1.49252 15.9735C1.49251 16.0363 1.50797 16.0981 1.53751 16.1535C1.57357 16.21 1.62357 16.2562 1.68268 16.2877C1.7418 16.3192 1.80804 16.335 1.87502 16.3335H22.125C22.1895 16.3325 22.2526 16.3155 22.3089 16.2841C22.3652 16.2527 22.4128 16.2078 22.4475 16.1535C22.4771 16.0981 22.4925 16.0363 22.4925 15.9735C22.4925 15.9107 22.4771 15.8489 22.4475 15.7935L21.9825 14.8335H22.125C22.6223 14.8335 23.0992 14.636 23.4508 14.2843C23.8025 13.9327 24 13.4558 24 12.9585V7.7085C24 7.21122 23.8025 6.7343 23.4508 6.38267C23.0992 6.03104 22.6223 5.8335 22.125 5.8335ZM2.48251 15.5835L2.85751 14.8335H21.1425L21.5175 15.5835H2.48251ZM3.00002 14.0835V13.3335H21V14.0835H3.00002ZM23.25 12.9585C23.25 13.2569 23.1315 13.543 22.9205 13.754C22.7095 13.965 22.4234 14.0835 22.125 14.0835H21.75V12.9585C21.75 12.859 21.7105 12.7637 21.6402 12.6933C21.5699 12.623 21.4745 12.5835 21.375 12.5835H2.62502C2.52556 12.5835 2.43018 12.623 2.35985 12.6933C2.28952 12.7637 2.25002 12.859 2.25002 12.9585V14.0835H1.87502C1.57794 14.0835 1.29292 13.966 1.08216 13.7566C0.871396 13.5473 0.751996 13.2631 0.750015 12.966V7.716C0.749026 7.56763 0.777395 7.42053 0.833488 7.28317C0.889582 7.14582 0.972292 7.02091 1.07686 6.91565C1.18142 6.81039 1.30577 6.72685 1.44276 6.66984C1.57974 6.61284 1.72664 6.58349 1.87502 6.5835H22.125C22.2734 6.58349 22.4203 6.61284 22.5573 6.66984C22.6943 6.72685 22.8186 6.81039 22.9232 6.91565C23.0277 7.02091 23.1104 7.14582 23.1665 7.28317C23.2226 7.42053 23.251 7.56763 23.25 7.716V12.9585ZM18.375 11.0835C18.2756 11.0835 18.1802 11.123 18.1098 11.1933C18.0395 11.2637 18 11.359 18 11.4585C18 11.558 18.0395 11.6533 18.1098 11.7237C18.1802 11.794 18.2756 11.8335 18.375 11.8335C18.4745 11.8335 18.5699 11.794 18.6402 11.7237C18.7105 11.6533 18.75 11.558 18.75 11.4585C18.75 11.359 18.7105 11.2637 18.6402 11.1933C18.5699 11.123 18.4745 11.0835 18.375 11.0835ZM14.625 9.201H9.37502C9.27556 9.201 9.18018 9.24051 9.10985 9.31083C9.03952 9.38116 9.00002 9.47654 9.00002 9.576C9.00002 9.67545 9.03952 9.77084 9.10985 9.84116C9.18018 9.91149 9.27556 9.951 9.37502 9.951H14.625C14.7245 9.951 14.8199 9.91149 14.8902 9.84116C14.9605 9.77084 15 9.67545 15 9.576C15 9.47654 14.9605 9.38116 14.8902 9.31083C14.8199 9.24051 14.7245 9.201 14.625 9.201ZM17.1225 17.8335C17.084 17.8641 17.0519 17.9021 17.0283 17.9453C17.0047 17.9884 16.9901 18.0359 16.9852 18.0849C16.9803 18.1339 16.9853 18.1833 16.9998 18.2303C17.0144 18.2773 17.0383 18.3209 17.07 18.3585C17.1571 18.4535 17.2099 18.575 17.22 18.7035C17.2139 18.8218 17.1749 18.9361 17.1075 19.0335C16.9951 19.2248 16.9213 19.4363 16.89 19.656C16.8453 19.9711 16.8868 20.2925 17.01 20.586C17.0383 20.6565 17.0869 20.7169 17.1497 20.7597C17.2125 20.8024 17.2866 20.8255 17.3625 20.826C17.4069 20.8365 17.4531 20.8365 17.4975 20.826C17.5433 20.8078 17.5851 20.7808 17.6205 20.7464C17.6559 20.7121 17.6841 20.6711 17.7036 20.6258C17.7231 20.5805 17.7335 20.5318 17.7342 20.4825C17.7348 20.4332 17.7258 20.3843 17.7075 20.3385C17.6342 20.1659 17.6058 19.9775 17.625 19.791C17.6527 19.6558 17.7034 19.5264 17.775 19.4085C17.9023 19.1981 17.9698 18.9569 17.97 18.711C17.9546 18.4174 17.841 18.1374 17.6475 17.916C17.6192 17.8752 17.5829 17.8405 17.5408 17.8142C17.4987 17.7878 17.4517 17.7702 17.4027 17.7625C17.3536 17.7548 17.3035 17.7571 17.2553 17.7693C17.2072 17.7815 17.162 17.8033 17.1225 17.8335ZM19.3725 17.8335C19.334 17.8641 19.3019 17.9021 19.2783 17.9453C19.2547 17.9884 19.2401 18.0359 19.2352 18.0849C19.2303 18.1339 19.2353 18.1833 19.2498 18.2303C19.2644 18.2773 19.2883 18.3209 19.32 18.3585C19.4071 18.4535 19.4599 18.575 19.47 18.7035C19.4639 18.8218 19.4249 18.9361 19.3575 19.0335C19.2451 19.2248 19.1713 19.4363 19.14 19.656C19.0953 19.9711 19.1368 20.2925 19.26 20.586C19.2883 20.6565 19.3369 20.7169 19.3997 20.7597C19.4625 20.8024 19.5366 20.8255 19.6125 20.826C19.6569 20.8365 19.7031 20.8365 19.7475 20.826C19.7933 20.8078 19.8351 20.7808 19.8705 20.7464C19.9059 20.7121 19.9341 20.6711 19.9536 20.6258C19.9731 20.5805 19.9835 20.5318 19.9842 20.4825C19.9848 20.4332 19.9758 20.3843 19.9575 20.3385C19.8842 20.1659 19.8558 19.9775 19.875 19.791C19.9027 19.6558 19.9534 19.5264 20.025 19.4085C20.1523 19.1981 20.2198 18.9569 20.22 18.711C20.2046 18.4174 20.091 18.1374 19.8975 17.916C19.8692 17.8752 19.8329 17.8405 19.7908 17.8142C19.7487 17.7878 19.7017 17.7702 19.6527 17.7625C19.6036 17.7548 19.5535 17.7571 19.5053 17.7693C19.4572 17.7815 19.412 17.8033 19.3725 17.8335Z" fill="#4F4F4F"/>
</g>
<defs>
<clipPath id="clip0">
<rect width="24" height="24" fill="white"/>
</clipPath>
</defs>
</svg>
