<svg width="24" height="24" viewBox="0 0 24 24" fill="none" xmlns="http://www.w3.org/2000/svg">
<path d="M6 20.6579V22.5H9.6V20.7H14.4V22.5H18V20.6579C20.5317 20.3481 22.5 18.189 22.5 15.575V12H19.5V4.95C19.5 3.04761 17.9522 1.5 16.05 1.5C14.2809 1.5 12.8201 2.83914 12.6241 4.55678C11.2447 4.82628 10.2 6.04283 10.2 7.5V8.7H16.2V7.5C16.2 6.06368 15.1848 4.86125 13.8348 4.56903C14.0166 3.50953 14.9394 2.7 16.05 2.7C17.2907 2.7 18.3 3.70928 18.3 4.95V12H1.5V15.575C1.5 18.189 3.46831 20.3481 6 20.6579ZM15 7.5H11.4C11.4 6.50742 12.2074 5.7 13.2 5.7C14.1926 5.7 15 6.50742 15 7.5ZM8.4 21.3H7.2V20.7H8.4V21.3ZM16.8 21.3H15.6V20.7H16.8V21.3ZM2.7 13.2H21.3V15.575C21.3 17.7393 19.5393 19.5 17.3751 19.5H6.6249C4.46074 19.5 2.7 17.7393 2.7 15.575V13.2Z" fill="#4F4F4F"/>
<path d="M15.45 9.34668H14.25V10.4999H15.45V9.34668Z" fill="#4F4F4F"/>
<path d="M12.1492 9.34668H10.9492V10.4999H12.1492V9.34668Z" fill="#4F4F4F"/>
<path d="M13.8016 10.5232H12.6016V11.6764H13.8016V10.5232Z" fill="#4F4F4F"/>
</svg>
