<svg width="18" height="18" viewBox="0 0 18 18" fill="none" xmlns="http://www.w3.org/2000/svg">
<path d="M3.375 3.375C2.44969 3.375 1.6875 4.13719 1.6875 5.0625V8.87681C1.34437 9.18675 1.125 9.63056 1.125 10.125V15.1875H3.9375V14.0625H14.0625V15.1875H16.875V10.125C16.875 9.63056 16.6556 9.18675 16.3125 8.87681V5.0625C16.3125 4.13719 15.5503 3.375 14.625 3.375H3.375ZM3.375 4.5H14.625C14.9372 4.5 15.1875 4.75031 15.1875 5.0625V8.4375H14.0625V7.875C14.0625 6.94969 13.3003 6.1875 12.375 6.1875H10.125C9.69413 6.1875 9.29869 6.35625 9 6.62681C8.6925 6.34586 8.29152 6.18928 7.875 6.1875H5.625C4.69969 6.1875 3.9375 6.94969 3.9375 7.875V8.4375H2.8125V5.0625C2.8125 4.75031 3.06281 4.5 3.375 4.5ZM5.625 7.3125H7.875C8.18719 7.3125 8.4375 7.56281 8.4375 7.875V8.4375H5.0625V7.875C5.0625 7.56281 5.31281 7.3125 5.625 7.3125ZM10.125 7.3125H12.375C12.6872 7.3125 12.9375 7.56281 12.9375 7.875V8.4375H9.5625V7.875C9.5625 7.56281 9.81281 7.3125 10.125 7.3125ZM2.8125 9.5625H15.1875C15.4997 9.5625 15.75 9.81281 15.75 10.125V14.0625H15.1875V12.9375H2.8125V14.0625H2.25V10.125C2.25 9.81281 2.50031 9.5625 2.8125 9.5625Z" fill="#4F4F4F"/>
</svg>
