<svg width="24" height="24" viewBox="0 0 24 24" fill="none" xmlns="http://www.w3.org/2000/svg">
<path fill-rule="evenodd" clip-rule="evenodd" d="M16.875 14.625V4.5C16.875 4.2015 16.9935 3.91575 17.2042 3.70425C17.4157 3.4935 17.7015 3.375 18 3.375C18 3.375 18 3.375 18 3.75V3.375C18.2985 3.375 18.5843 3.4935 18.7957 3.70425C19.0065 3.91575 19.125 4.2015 19.125 4.5V14.625H20.25C21.2857 14.625 22.125 15.4642 22.125 16.5V18C22.125 19.0358 21.2857 19.875 20.25 19.875H19.875V20.25C19.875 20.871 19.371 21.375 18.75 21.375C18.2917 21.375 17.7083 21.375 17.25 21.375C16.629 21.375 16.125 20.871 16.125 20.25V19.875H7.875V20.25C7.875 20.871 7.371 21.375 6.75 21.375C6.29175 21.375 5.70825 21.375 5.25 21.375C4.629 21.375 4.125 20.871 4.125 20.25V19.875H3.75C2.71425 19.875 1.875 19.0358 1.875 18C1.875 17.517 1.875 16.983 1.875 16.5C1.875 15.4642 2.71425 14.625 3.75 14.625H4.875V4.5C4.875 4.2015 4.9935 3.91575 5.20425 3.70425C5.41575 3.4935 5.7015 3.375 6 3.375C6 3.375 6 3.375 6 3.75V3.375C6.2985 3.375 6.58425 3.4935 6.79575 3.70425C7.0065 3.91575 7.125 4.2015 7.125 4.5V14.625H16.875ZM19.125 19.875H16.875V20.25C16.875 20.457 17.043 20.625 17.25 20.625C17.7083 20.625 18.2917 20.625 18.75 20.625C18.957 20.625 19.125 20.457 19.125 20.25V19.875ZM7.125 19.875H4.875V20.25C4.875 20.457 5.043 20.625 5.25 20.625C5.70825 20.625 6.29175 20.625 6.75 20.625C6.957 20.625 7.125 20.457 7.125 20.25V19.875ZM20.25 15.375H3.75C3.129 15.375 2.625 15.879 2.625 16.5C2.625 16.983 2.625 17.517 2.625 18C2.625 18.621 3.129 19.125 3.75 19.125C7.38225 19.125 16.6178 19.125 20.25 19.125C20.871 19.125 21.375 18.621 21.375 18V16.5C21.375 15.879 20.871 15.375 20.25 15.375ZM18 16.125C17.379 16.125 16.875 16.629 16.875 17.25C16.875 17.871 17.379 18.375 18 18.375C18.621 18.375 19.125 17.871 19.125 17.25C19.125 16.629 18.621 16.125 18 16.125ZM15 16.125C14.379 16.125 13.875 16.629 13.875 17.25C13.875 17.871 14.379 18.375 15 18.375C15.621 18.375 16.125 17.871 16.125 17.25C16.125 16.629 15.621 16.125 15 16.125ZM5.25 18.375H11.25C11.457 18.375 11.625 18.207 11.625 18C11.625 17.793 11.457 17.625 11.25 17.625H5.25C5.043 17.625 4.875 17.793 4.875 18C4.875 18.207 5.043 18.375 5.25 18.375ZM18 16.875C18.207 16.875 18.375 17.043 18.375 17.25C18.375 17.457 18.207 17.625 18 17.625C17.793 17.625 17.625 17.457 17.625 17.25C17.625 17.043 17.793 16.875 18 16.875ZM15 16.875C15.207 16.875 15.375 17.043 15.375 17.25C15.375 17.457 15.207 17.625 15 17.625C14.793 17.625 14.625 17.457 14.625 17.25C14.625 17.043 14.793 16.875 15 16.875ZM5.25 16.875H11.25C11.457 16.875 11.625 16.707 11.625 16.5C11.625 16.293 11.457 16.125 11.25 16.125H5.25C5.043 16.125 4.875 16.293 4.875 16.5C4.875 16.707 5.043 16.875 5.25 16.875ZM6.375 14.625V4.5C6.375 4.40025 6.33525 4.305 6.2655 4.2345C6.195 4.16475 6.09975 4.125 6 4.125V3.75V4.125C5.90025 4.125 5.805 4.16475 5.7345 4.2345C5.66475 4.305 5.625 4.40025 5.625 4.5V14.625H6.375ZM18.375 14.625V4.5C18.375 4.40025 18.3353 4.305 18.2655 4.2345C18.195 4.16475 18.0998 4.125 18 4.125V3.75V4.125C17.9002 4.125 17.805 4.16475 17.7345 4.2345C17.6648 4.305 17.625 4.40025 17.625 4.5V14.625H18.375ZM10.158 12.9225C10.6875 12.576 11.3205 12.375 12 12.375C12.6795 12.375 13.3125 12.576 13.842 12.9225C14.0152 13.0358 14.2478 12.987 14.361 12.8137C14.4743 12.6405 14.4255 12.408 14.2523 12.2947C13.605 11.871 12.831 11.625 12 11.625C11.169 11.625 10.395 11.871 9.74775 12.2947C9.5745 12.408 9.52575 12.6405 9.639 12.8137C9.75225 12.987 9.98475 13.0358 10.158 12.9225ZM9.52425 11.1203C10.2615 10.7243 11.1045 10.5 12 10.5C12.8955 10.5 13.7385 10.7243 14.4757 11.1203C14.6588 11.2178 14.886 11.1495 14.9835 10.9673C15.0818 10.785 15.0127 10.557 14.8305 10.4595C13.9875 10.0065 13.0238 9.75 12 9.75C10.9762 9.75 10.0125 10.0065 9.1695 10.4595C8.98725 10.557 8.91825 10.785 9.0165 10.9673C9.114 11.1495 9.34125 11.2178 9.52425 11.1203ZM8.91 9.32925C9.84525 8.87775 10.893 8.625 12 8.625C13.107 8.625 14.1548 8.87775 15.09 9.32925C15.276 9.41925 15.501 9.3405 15.5903 9.1545C15.6803 8.96775 15.6023 8.7435 15.4163 8.6535C14.3828 8.15475 13.224 7.875 12 7.875C10.776 7.875 9.61725 8.15475 8.58375 8.6535C8.39775 8.7435 8.31975 8.96775 8.40975 9.1545C8.499 9.3405 8.724 9.41925 8.91 9.32925Z" fill="#4F4F4F"/>
</svg>
